<svg xmlns="http://www.w3.org/2000/svg" width="20" height="20" fill="none"><path fill="#0F172A" d="M14.027 0h-8.07A5.954 5.954 0 0 0 .01 5.948v8.07a5.954 5.954 0 0 0 5.948 5.947h8.07a5.954 5.954 0 0 0 5.947-5.948v-8.07A5.954 5.954 0 0 0 14.027 0Zm3.94 14.017a3.94 3.94 0 0 1-3.94 3.94h-8.07a3.94 3.94 0 0 1-3.94-3.94v-8.07a3.94 3.94 0 0 1 3.94-3.939h8.07a3.94 3.94 0 0 1 3.94 3.94v8.07-.001Z"/><path fill="#0F172A" d="M9.992 4.819A5.17 5.17 0 0 0 4.83 9.982a5.17 5.17 0 0 0 5.163 5.164 5.17 5.17 0 0 0 5.164-5.164A5.17 5.17 0 0 0 9.992 4.82v-.001Zm0 8.319a3.155 3.155 0 1 1 0-6.31 3.155 3.155 0 0 1 0 6.31ZM15.166 6.095a1.237 1.237 0 1 0 0-2.474 1.237 1.237 0 0 0 0 2.474Z"/></svg>