<svg xmlns="http://www.w3.org/2000/svg" width="110" height="32" fill="none"><path fill="#fff" d="M10.166 19.982v8.12a1.173 1.173 0 1 1-2.348 0v-8.109c.327.239.719.372 1.124.382.44.012.873-.126 1.224-.393Zm9.996-2.348a1.123 1.123 0 0 0-1.123 1.123v1.416a1.173 1.173 0 1 0 2.348 0v-1.36a1.124 1.124 0 0 0-1.225-1.179ZM5.27 23.06a2.021 2.021 0 0 1-1.123-.382v8.144a1.18 1.18 0 1 0 2.358 0v-8.087c-.367.237-.8.35-1.235.325ZM16.5 15.197a1.123 1.123 0 0 0-1.18 1.123v6.256a1.179 1.179 0 1 0 2.36 0V16.4a1.123 1.123 0 0 0-1.236-1.18l.056-.022ZM12.77 17.6a2.056 2.056 0 0 1-1.179-.382v8.165a1.18 1.18 0 1 0 2.36 0V17.23a1.988 1.988 0 0 1-1.236.393l.056-.022ZM2.72 23.857V1.045A1.056 1.056 0 0 0 1.663 0h-.247A1.056 1.056 0 0 0 .36 1.045v22.812a1.056 1.056 0 0 0 1.056 1.056h.247a1.056 1.056 0 0 0 1.056-1.056Zm2.673-1.662h-.247a1.055 1.055 0 0 1-1.056-1.056V3.763a1.056 1.056 0 0 1 1.056-1.045h.247a1.056 1.056 0 0 1 1.056 1.045V21.16a1.056 1.056 0 0 1-1.056 1.056v-.022ZM9.11 19.52h-.258a1.045 1.045 0 0 1-1.045-1.044V6.458a1.046 1.046 0 0 1 1.045-1.055h.258a1.056 1.056 0 0 1 1.045 1.055v12.019A1.044 1.044 0 0 1 9.11 19.52Zm3.718-2.752h-.236a1.055 1.055 0 0 1-1.056-1.044v-6.47a1.055 1.055 0 0 1 1.056-1.123h.247a1.056 1.056 0 0 1 1.056 1.056v6.514a1.055 1.055 0 0 1-1.056 1.067h-.011Zm3.729-2.414h-.247a1.056 1.056 0 0 1-1.056-1.056v-1.674a1.056 1.056 0 0 1 1.056-1.044h.247a1.056 1.056 0 0 1 1.056 1.044V13.3a1.056 1.056 0 0 1-1.045 1.056h-.011ZM35.025 21.293l3.398-14.355h1.899l.433 2.39L37.135 24h-2.04l-.07-2.707ZM33.279 6.938l2.812 14.355L35.857 24h-2.273L29.797 6.937h3.48Zm10.465 14.296L46.52 6.937h3.48L46.228 24h-2.273l-.211-2.766ZM41.388 6.937l3.422 14.415L44.716 24h-2.039L39.033 9.316l.468-2.379h1.887Zm16.946 2.918L53.693 24h-3.738l6.34-17.063h2.378l-.34 2.918ZM62.188 24 57.537 9.855l-.375-2.918h2.402L65.939 24h-3.75Zm-.211-6.352v2.754h-9.012v-2.754h9.012Zm10.734 2.79 4.02-13.5h3.914L74.705 24h-2.579l.586-3.563Zm-3.703-13.5 4.008 13.5.61 3.562h-2.602L65.119 6.937h3.89Zm24.68 14.32V24h-9.082v-2.742h9.082Zm-7.934-14.32V24H82.24V6.937h3.515Zm6.75 6.949v2.672h-7.898v-2.672h7.898Zm1.172-6.95v2.754h-9.07V6.937h9.07Zm10.946 12.598c0-.305-.047-.578-.141-.82a1.55 1.55 0 0 0-.492-.68c-.242-.21-.582-.418-1.02-.62a14.386 14.386 0 0 0-1.699-.634 21.544 21.544 0 0 1-2.203-.843 9.057 9.057 0 0 1-1.828-1.09 4.91 4.91 0 0 1-1.242-1.465c-.297-.555-.446-1.2-.446-1.934a4 4 0 0 1 .469-1.933 4.45 4.45 0 0 1 1.313-1.5c.562-.422 1.226-.746 1.992-.973a9.02 9.02 0 0 1 2.543-.34c1.257 0 2.355.227 3.293.68.937.453 1.664 1.074 2.179 1.863.524.79.785 1.691.785 2.707h-3.492c0-.5-.105-.937-.316-1.312a2.14 2.14 0 0 0-.938-.903c-.414-.218-.937-.328-1.57-.328-.609 0-1.117.094-1.523.281-.407.18-.711.426-.914.739a1.816 1.816 0 0 0-.305 1.03c0 .29.07.552.21.786.15.234.368.453.657.656.289.204.645.395 1.066.575.422.18.911.355 1.465.527.93.281 1.746.598 2.45.95.71.35 1.304.745 1.781 1.183.476.437.836.933 1.078 1.488.242.555.363 1.184.363 1.887 0 .742-.144 1.406-.433 1.992a4.091 4.091 0 0 1-1.254 1.488c-.547.406-1.2.715-1.957.926-.758.21-1.606.316-2.543.316-.844 0-1.676-.109-2.496-.328a7.58 7.58 0 0 1-2.239-1.02 5.137 5.137 0 0 1-1.593-1.734c-.399-.703-.598-1.535-.598-2.496h3.527c0 .532.082.98.246 1.348.164.367.395.664.692.89.304.227.664.391 1.078.493.422.101.883.152 1.383.152.609 0 1.109-.086 1.5-.258.398-.172.691-.41.879-.715.195-.304.293-.648.293-1.03Z"/></svg>