<svg xmlns="http://www.w3.org/2000/svg" width="134" height="32" fill="none"><path fill="#fff" fill-rule="evenodd" d="M16.96 32c8.837 0 16-7.163 16-16s-7.163-16-16-16c-8.836 0-16 7.163-16 16s7.164 16 16 16Zm4.992-24.547c.243-.863-.595-1.373-1.36-.828L9.916 14.232c-.83.59-.7 1.768.196 1.768h2.812v-.022h5.48l-4.466 1.576-1.968 6.993c-.243.863.595 1.373 1.36.828l10.677-7.607c.83-.59.699-1.768-.196-1.768h-4.264l2.406-8.547Z" clip-rule="evenodd"/><path fill="#fff" d="M54.824 21.258V24H42.73v-2.742h12.094Zm-.176-12.363L44.288 24h-2.472v-2.016L52.257 6.937h2.39v1.958ZM53.44 6.938V9.69H41.828V6.937H53.44Zm2.613 10.851v-.246c0-.93.133-1.785.399-2.566a5.939 5.939 0 0 1 1.16-2.051 5.199 5.199 0 0 1 1.875-1.348c.742-.328 1.593-.492 2.554-.492.961 0 1.817.164 2.567.492.75.32 1.379.77 1.887 1.348a5.838 5.838 0 0 1 1.172 2.05c.265.782.398 1.637.398 2.567v.246c0 .922-.133 1.777-.398 2.566a5.98 5.98 0 0 1-1.172 2.051 5.197 5.197 0 0 1-1.875 1.348c-.743.32-1.594.48-2.555.48-.961 0-1.817-.16-2.567-.48a5.31 5.31 0 0 1-1.886-1.348 6.086 6.086 0 0 1-1.16-2.05 7.998 7.998 0 0 1-.399-2.567Zm3.375-.246v.246c0 .531.047 1.027.14 1.488.095.461.243.867.446 1.22.211.343.484.612.82.808.336.195.746.293 1.23.293.47 0 .872-.098 1.208-.293.336-.196.605-.465.809-.809.203-.351.351-.758.445-1.219.101-.46.152-.957.152-1.488v-.246c0-.516-.05-1-.152-1.453a3.836 3.836 0 0 0-.457-1.219 2.27 2.27 0 0 0-.809-.844c-.336-.203-.742-.304-1.219-.304-.476 0-.882.101-1.218.304a2.399 2.399 0 0 0-.809.844 4.024 4.024 0 0 0-.445 1.219 7.17 7.17 0 0 0-.14 1.453Zm10.172.246v-.246c0-.93.133-1.785.398-2.566a5.937 5.937 0 0 1 1.16-2.051 5.199 5.199 0 0 1 1.876-1.348c.742-.328 1.593-.492 2.554-.492.961 0 1.817.164 2.567.492.75.32 1.379.77 1.886 1.348a5.84 5.84 0 0 1 1.172 2.05c.266.782.399 1.637.399 2.567v.246c0 .922-.133 1.777-.399 2.566a5.982 5.982 0 0 1-1.171 2.051 5.197 5.197 0 0 1-1.876 1.348c-.742.32-1.593.48-2.554.48-.961 0-1.817-.16-2.567-.48a5.31 5.31 0 0 1-1.886-1.348 6.084 6.084 0 0 1-1.16-2.05 7.998 7.998 0 0 1-.399-2.567Zm3.375-.246v.246c0 .531.047 1.027.14 1.488.094.461.243.867.446 1.22.21.343.484.612.82.808.336.195.746.293 1.23.293.47 0 .872-.098 1.208-.293.336-.196.605-.465.808-.809.204-.351.352-.758.446-1.219.101-.46.152-.957.152-1.488v-.246c0-.516-.05-1-.152-1.453a3.836 3.836 0 0 0-.457-1.219 2.27 2.27 0 0 0-.809-.844c-.336-.203-.742-.304-1.219-.304-.476 0-.882.101-1.218.304a2.398 2.398 0 0 0-.809.844 4.021 4.021 0 0 0-.445 1.219c-.094.453-.14.937-.14 1.453Zm14.086-3.598V24h-3.387V11.32h3.176l.211 2.625Zm-.469 3.27h-.937c0-.883.105-1.695.316-2.438.219-.75.535-1.398.95-1.945a4.36 4.36 0 0 1 1.558-1.289c.617-.305 1.332-.457 2.144-.457.563 0 1.079.086 1.547.258a2.97 2.97 0 0 1 1.207.785c.344.351.61.812.797 1.383.188.562.282 1.238.282 2.027V24h-3.375v-8.086c0-.578-.079-1.023-.235-1.336a1.33 1.33 0 0 0-.668-.656c-.281-.125-.62-.188-1.02-.188-.437 0-.82.09-1.148.27-.32.18-.586.43-.797.75-.21.312-.367.68-.468 1.101a5.794 5.794 0 0 0-.153 1.36Zm7.547-.387-1.207.152c0-.828.102-1.597.305-2.308.21-.711.52-1.336.926-1.875.414-.54.925-.957 1.535-1.254.61-.305 1.312-.457 2.11-.457.609 0 1.163.09 1.663.27.5.171.926.449 1.278.832.359.374.632.867.82 1.476.195.61.293 1.356.293 2.238V24h-3.387v-8.098c0-.586-.078-1.03-.234-1.336-.149-.312-.368-.527-.657-.644-.28-.125-.617-.188-1.007-.188-.407 0-.762.082-1.067.246a2.123 2.123 0 0 0-.761.657c-.204.281-.356.61-.457.984-.102.367-.153.77-.153 1.207Zm16.172 7.406c-.984 0-1.867-.156-2.648-.468a5.812 5.812 0 0 1-1.993-1.325 5.884 5.884 0 0 1-1.242-1.957 6.59 6.59 0 0 1-.433-2.39v-.469c0-.96.136-1.84.41-2.637a6.19 6.19 0 0 1 1.172-2.074 5.136 5.136 0 0 1 1.875-1.348c.734-.32 1.562-.48 2.484-.48.898 0 1.695.148 2.391.445a4.689 4.689 0 0 1 1.746 1.266 5.467 5.467 0 0 1 1.078 1.969c.242.757.363 1.601.363 2.53v1.407h-10.078v-2.25h6.762v-.258c0-.468-.086-.886-.258-1.254a1.99 1.99 0 0 0-.75-.89c-.336-.219-.766-.328-1.289-.328-.445 0-.828.097-1.149.293-.32.195-.582.468-.785.82a4.49 4.49 0 0 0-.445 1.242 7.882 7.882 0 0 0-.141 1.547v.469c0 .508.071.976.211 1.406.149.43.356.8.621 1.113.274.313.602.555.985.727.39.172.832.258 1.324.258.609 0 1.176-.117 1.699-.352a3.682 3.682 0 0 0 1.371-1.09l1.641 1.782c-.266.382-.629.75-1.09 1.101-.453.352-1 .64-1.641.867-.64.219-1.371.328-2.191.328Zm10.5-10.148V24h-3.375V11.32h3.176l.199 2.766Zm3.82-2.848-.058 3.13a8.19 8.19 0 0 0-.598-.06 6.085 6.085 0 0 0-.621-.035c-.477 0-.891.063-1.242.188a2.21 2.21 0 0 0-.867.527c-.227.235-.399.52-.516.856a4.23 4.23 0 0 0-.188 1.148l-.679-.21c0-.821.082-1.575.246-2.262.164-.696.402-1.301.715-1.817.32-.515.711-.914 1.172-1.195.461-.281.988-.422 1.582-.422.187 0 .379.016.574.047.195.023.355.058.48.105Zm4.969 2.848V24h-3.375V11.32h3.176l.199 2.766Zm3.82-2.848-.058 3.13a8.134 8.134 0 0 0-.598-.06 6.07 6.07 0 0 0-.621-.035c-.477 0-.891.063-1.242.188a2.21 2.21 0 0 0-.867.527c-.227.235-.399.52-.516.856a4.194 4.194 0 0 0-.187 1.148l-.68-.21c0-.821.082-1.575.246-2.262.164-.696.402-1.301.715-1.817.32-.515.711-.914 1.172-1.195.461-.281.988-.422 1.582-.422.187 0 .379.016.574.047.195.023.355.058.48.105Z"/></svg>