<svg xmlns="http://www.w3.org/2000/svg" width="177" height="32" fill="none"><path fill="#fff" d="M23.483 26.485 2.07 11.713C-.1 10.217.638 7.101 3.344 6.368L26.102.191a3.223 3.223 0 0 1 4.315 2.975L29.07 24.112c-.16 2.486-3.416 3.87-5.586 2.373Z"/><path fill="#fff" d="M16.691 30.13 4.077 5.46A3.441 3.441 0 0 1 7.666.495l23.378 3.608a3.442 3.442 0 0 1 2.539 4.968l-10.77 21.062a3.442 3.442 0 0 1-6.122-.002Z"/><path fill="#0F172A" d="M24.38 8.727 19.893 8l-5.511 1.57 2.2 4.516 5.15 3.73c.115.08.24.143.371.184l1.957-4.015.322-5.258Z"/><path fill="#fff" d="M52.366 19.535a2.26 2.26 0 0 0-.14-.82 1.55 1.55 0 0 0-.493-.68c-.242-.21-.582-.418-1.02-.62a14.4 14.4 0 0 0-1.698-.634 21.508 21.508 0 0 1-2.203-.843 9.053 9.053 0 0 1-1.829-1.09 4.912 4.912 0 0 1-1.242-1.465c-.297-.555-.445-1.2-.445-1.934a4 4 0 0 1 .469-1.933 4.45 4.45 0 0 1 1.312-1.5c.563-.422 1.227-.746 1.992-.973a9.02 9.02 0 0 1 2.543-.34c1.258 0 2.356.227 3.293.68.938.453 1.664 1.074 2.18 1.863.523.79.785 1.691.785 2.707h-3.492c0-.5-.105-.937-.316-1.312a2.14 2.14 0 0 0-.938-.903c-.414-.218-.938-.328-1.57-.328-.61 0-1.117.094-1.524.281-.406.18-.71.426-.914.739a1.817 1.817 0 0 0-.304 1.03c0 .29.07.552.21.786.149.234.368.453.657.656.289.204.644.395 1.066.575.422.18.91.355 1.465.527.93.281 1.746.598 2.45.95.71.35 1.304.745 1.78 1.183.477.437.836.933 1.079 1.488.242.555.363 1.184.363 1.887 0 .742-.145 1.406-.434 1.992a4.092 4.092 0 0 1-1.254 1.488c-.547.406-1.199.715-1.957.926-.758.21-1.605.316-2.543.316-.843 0-1.675-.109-2.496-.328a7.579 7.579 0 0 1-2.238-1.02 5.137 5.137 0 0 1-1.594-1.734c-.398-.703-.597-1.535-.597-2.496h3.527c0 .532.082.98.246 1.348.164.367.395.664.691.89.305.227.665.391 1.079.493.421.101.882.152 1.382.152.61 0 1.11-.086 1.5-.258.399-.172.692-.41.88-.715a1.87 1.87 0 0 0 .292-1.03Zm9.07-5.59V24H58.05V11.32h3.176l.21 2.625Zm-.468 3.27h-.938c0-.883.106-1.695.317-2.438.218-.75.535-1.398.949-1.945a4.36 4.36 0 0 1 1.559-1.289c.617-.305 1.331-.457 2.144-.457.563 0 1.078.086 1.547.258a2.97 2.97 0 0 1 1.207.785c.344.351.61.812.797 1.383.187.562.281 1.238.281 2.027V24h-3.375v-8.086c0-.578-.078-1.023-.234-1.336a1.33 1.33 0 0 0-.668-.656c-.282-.125-.621-.188-1.02-.188-.437 0-.82.09-1.148.27-.32.18-.586.43-.797.75-.211.312-.367.68-.469 1.101a5.8 5.8 0 0 0-.152 1.36Zm7.547-.387-1.207.152c0-.828.101-1.597.304-2.308.211-.711.52-1.336.926-1.875.414-.54.926-.957 1.535-1.254.61-.305 1.313-.457 2.11-.457.609 0 1.164.09 1.664.27.5.171.925.449 1.277.832.36.374.633.867.82 1.476.196.61.293 1.356.293 2.238V24h-3.386v-8.098c0-.586-.079-1.03-.235-1.336-.148-.312-.367-.527-.656-.644-.281-.125-.617-.188-1.008-.188-.406 0-.762.082-1.066.246a2.124 2.124 0 0 0-.762.657c-.203.281-.355.61-.457.984-.102.367-.152.77-.152 1.207Zm17.18 4.313v-5.649c0-.406-.067-.754-.2-1.043a1.483 1.483 0 0 0-.621-.691c-.273-.164-.629-.246-1.066-.246-.375 0-.7.066-.973.199a1.408 1.408 0 0 0-.633.55 1.522 1.522 0 0 0-.222.833h-3.376c0-.54.126-1.051.376-1.535.25-.485.613-.91 1.09-1.278a5.383 5.383 0 0 1 1.699-.879c.664-.21 1.406-.316 2.226-.316.984 0 1.86.164 2.625.492.766.328 1.367.82 1.805 1.477.445.656.668 1.476.668 2.46v5.426c0 .696.043 1.266.129 1.711.086.438.21.82.375 1.149V24h-3.41c-.165-.344-.29-.773-.376-1.29a10.626 10.626 0 0 1-.117-1.57Zm.445-4.864.023 1.91h-1.887c-.445 0-.832.051-1.16.153a2.16 2.16 0 0 0-.808.433c-.211.18-.368.391-.47.633-.093.242-.14.508-.14.797 0 .29.067.55.2.785.132.227.324.407.574.54.25.124.543.187.879.187.507 0 .949-.102 1.324-.305.375-.203.664-.453.867-.75.21-.297.32-.578.328-.844l.89 1.43c-.124.32-.296.652-.515.996a4.65 4.65 0 0 1-.809.973 4.169 4.169 0 0 1-1.183.738c-.461.188-1.008.281-1.64.281-.805 0-1.536-.16-2.192-.48a3.994 3.994 0 0 1-1.547-1.348c-.375-.578-.563-1.234-.563-1.968 0-.665.125-1.254.375-1.77s.618-.95 1.102-1.3c.492-.36 1.106-.63 1.84-.81.734-.187 1.586-.28 2.555-.28h1.957Zm8.93-2.191V24h-3.376V11.32h3.176l.2 2.766Zm3.82-2.848-.059 3.13a8.164 8.164 0 0 0-.598-.06 6.089 6.089 0 0 0-.62-.035c-.477 0-.891.063-1.243.188a2.216 2.216 0 0 0-.867.527c-.227.235-.398.52-.516.856a4.2 4.2 0 0 0-.187 1.148l-.68-.21c0-.821.082-1.575.246-2.262.164-.696.403-1.301.715-1.817.32-.515.711-.914 1.172-1.195.46-.281.988-.422 1.582-.422.188 0 .379.016.574.047.195.023.356.058.48.105Zm8.39.082v2.39h-7.383v-2.39h7.383Zm-5.554-3.129h3.375V20.18c0 .367.046.648.14.843.102.196.25.332.446.41.195.07.441.106.738.106.211 0 .398-.008.562-.023.172-.024.317-.047.434-.07l.012 2.484a6.34 6.34 0 0 1-.938.222 6.952 6.952 0 0 1-1.113.082c-.742 0-1.391-.12-1.945-.363a2.68 2.68 0 0 1-1.266-1.195c-.297-.547-.445-1.266-.445-2.156V8.19Zm11.203-1.254V24h-3.516V6.937h3.516Zm6.797 7.29v2.742h-7.758v-2.742h7.758Zm.82-7.29v2.754h-8.578V6.937h8.578Zm5.391 4.383V24h-3.387V11.32h3.387Zm-3.598-3.304c0-.493.172-.899.515-1.22.344-.32.805-.48 1.383-.48.571 0 1.028.16 1.371.48.352.321.528.727.528 1.22 0 .492-.176.898-.528 1.218-.343.32-.8.48-1.371.48-.578 0-1.039-.16-1.383-.48-.343-.32-.515-.726-.515-1.218Zm9.691 6.011V24h-3.375V11.32h3.164l.211 2.707Zm-.492 3.188h-.914c0-.938.121-1.781.363-2.531.242-.758.582-1.403 1.02-1.934.437-.54.957-.95 1.558-1.23.61-.29 1.289-.434 2.039-.434.594 0 1.137.086 1.629.258.493.172.914.445 1.266.82.359.375.633.871.82 1.488.196.618.293 1.371.293 2.262V24h-3.398v-8.098c0-.562-.078-1-.235-1.312a1.313 1.313 0 0 0-.691-.656c-.297-.133-.664-.2-1.101-.2-.454 0-.848.09-1.184.27-.328.18-.602.43-.82.75-.211.312-.371.68-.481 1.101a5.418 5.418 0 0 0-.164 1.36Zm18.129 4.02V6h3.398v18h-3.058l-.34-2.766Zm-8.016-3.422v-.247c0-.968.11-1.847.328-2.636.219-.797.54-1.48.961-2.051a4.382 4.382 0 0 1 1.559-1.324c.617-.313 1.32-.47 2.109-.47.743 0 1.391.157 1.946.47a4.152 4.152 0 0 1 1.429 1.336c.399.57.719 1.246.961 2.027.243.773.418 1.621.528 2.543V18c-.11.883-.285 1.703-.528 2.46a7.35 7.35 0 0 1-.961 1.993c-.39.563-.867 1-1.429 1.313-.563.312-1.219.468-1.969.468-.789 0-1.492-.16-2.109-.48a4.472 4.472 0 0 1-1.547-1.348c-.414-.578-.731-1.258-.95-2.039a9.479 9.479 0 0 1-.328-2.555Zm3.375-.247v.247c0 .523.039 1.011.118 1.464.085.453.222.856.41 1.207.195.344.445.614.75.809.312.188.691.281 1.136.281.579 0 1.055-.129 1.43-.387.375-.265.66-.628.856-1.09.203-.46.32-.992.351-1.593v-1.535a5.517 5.517 0 0 0-.211-1.325 2.872 2.872 0 0 0-.492-1.019 2.174 2.174 0 0 0-.797-.656c-.312-.156-.683-.235-1.113-.235-.438 0-.813.102-1.125.305a2.227 2.227 0 0 0-.762.809c-.187.343-.328.75-.422 1.218-.086.461-.129.961-.129 1.5Zm16.512 6.668c-.984 0-1.867-.156-2.648-.468a5.812 5.812 0 0 1-1.993-1.325 5.884 5.884 0 0 1-1.242-1.957 6.59 6.59 0 0 1-.433-2.39v-.469c0-.96.136-1.84.41-2.637a6.19 6.19 0 0 1 1.172-2.074 5.136 5.136 0 0 1 1.875-1.348c.734-.32 1.562-.48 2.484-.48.899 0 1.695.148 2.391.445a4.689 4.689 0 0 1 1.746 1.266 5.467 5.467 0 0 1 1.078 1.969c.242.757.363 1.601.363 2.53v1.407h-10.078v-2.25h6.762v-.258c0-.468-.086-.886-.258-1.254a1.99 1.99 0 0 0-.75-.89c-.336-.219-.766-.328-1.289-.328-.445 0-.828.097-1.149.293-.32.195-.582.468-.785.82a4.49 4.49 0 0 0-.445 1.242 7.882 7.882 0 0 0-.141 1.547v.469c0 .508.071.976.211 1.406.149.43.356.8.621 1.113.274.313.602.555.985.727.39.172.832.258 1.324.258.609 0 1.176-.117 1.699-.352a3.674 3.674 0 0 0 1.371-1.09l1.641 1.782c-.266.382-.629.75-1.09 1.101-.453.352-1 .64-1.641.867-.64.219-1.371.328-2.191.328Zm10.5-10.148V24h-3.375V11.32h3.176l.199 2.766Zm3.82-2.848-.058 3.13a8.134 8.134 0 0 0-.598-.06 6.07 6.07 0 0 0-.621-.035c-.477 0-.891.063-1.242.188a2.21 2.21 0 0 0-.867.527c-.227.235-.399.52-.516.856a4.194 4.194 0 0 0-.187 1.148l-.68-.21c0-.821.082-1.575.246-2.262.164-.696.402-1.301.715-1.817.32-.515.711-.914 1.172-1.195.461-.281.988-.422 1.582-.422.187 0 .379.016.574.047.195.023.355.058.48.105Z"/></svg>