<svg xmlns="http://www.w3.org/2000/svg" width="167" height="32" fill="none"><path fill="#fff" d="M37.796 32h12.918l-32-32H5.796l32 32ZM25.351 0 56.2 30.847V0H47.85v9.74L38.11 0h-12.76ZM.389 1.071V32h8.347v-9.74l9.74 9.74h12.841L.39 1.071ZM72.66 9.855 68.018 24H64.28l6.34-17.063H73l-.34 2.918ZM76.514 24 71.862 9.855l-.375-2.918h2.403L80.265 24h-3.75Zm-.211-6.352v2.754h-9.012v-2.754h9.012Zm8.707-3.562V24h-3.375V11.32h3.175l.2 2.766Zm3.82-2.848-.059 3.13a8.164 8.164 0 0 0-.597-.06 6.089 6.089 0 0 0-.621-.035c-.477 0-.89.063-1.243.188a2.216 2.216 0 0 0-.867.527c-.226.235-.398.52-.515.856a4.2 4.2 0 0 0-.188 1.148l-.68-.21c0-.821.083-1.575.247-2.262.164-.696.402-1.301.714-1.817.32-.515.711-.914 1.172-1.195.461-.281.989-.422 1.582-.422.188 0 .38.016.575.047.195.023.355.058.48.105Zm8.39.082v2.39H89.84v-2.39h7.383Zm-5.554-3.129h3.375V20.18c0 .367.047.648.14.843.102.196.25.332.446.41.195.07.441.106.738.106.211 0 .399-.008.563-.023.172-.024.316-.047.433-.07l.012 2.484a6.333 6.333 0 0 1-.938.222 6.952 6.952 0 0 1-1.113.082c-.742 0-1.39-.12-1.945-.363a2.68 2.68 0 0 1-1.266-1.195c-.297-.547-.445-1.266-.445-2.156V8.19Zm13.84 12.246 4.019-13.5h3.914L107.499 24h-2.578l.586-3.563Zm-3.703-13.5 4.008 13.5.609 3.563h-2.602L97.913 6.937h3.891Zm18.34 17.297c-.985 0-1.868-.156-2.649-.468a5.818 5.818 0 0 1-1.992-1.325 5.884 5.884 0 0 1-1.242-1.957 6.591 6.591 0 0 1-.434-2.39v-.469c0-.96.137-1.84.41-2.637a6.207 6.207 0 0 1 1.172-2.074 5.153 5.153 0 0 1 1.875-1.348c.735-.32 1.563-.48 2.485-.48.898 0 1.695.148 2.39.445a4.68 4.68 0 0 1 1.746 1.266c.477.547.836 1.203 1.078 1.969.243.757.364 1.601.364 2.53v1.407h-10.078v-2.25h6.761v-.258c0-.468-.086-.886-.258-1.254a1.99 1.99 0 0 0-.75-.89c-.335-.219-.765-.328-1.289-.328-.445 0-.828.097-1.148.293-.32.195-.582.468-.785.82a4.458 4.458 0 0 0-.446 1.242c-.093.469-.14.985-.14 1.547v.469c0 .508.07.976.211 1.406.148.43.355.8.621 1.113.273.313.601.555.984.727.391.172.832.258 1.324.258.61 0 1.176-.117 1.7-.352a3.682 3.682 0 0 0 1.371-1.09l1.64 1.782c-.265.382-.628.75-1.089 1.101-.454.352-1 .64-1.641.867-.641.219-1.371.328-2.191.328Zm10.429-10.207V24h-3.375V11.32h3.164l.211 2.707Zm-.492 3.188h-.914c0-.938.121-1.781.363-2.531.242-.758.582-1.403 1.02-1.934.437-.54.957-.95 1.558-1.23.61-.29 1.289-.434 2.039-.434.594 0 1.137.086 1.629.258.493.172.914.445 1.266.82.359.375.633.871.82 1.488.196.618.293 1.371.293 2.262V24h-3.398v-8.098c0-.562-.078-1-.235-1.312a1.313 1.313 0 0 0-.691-.656c-.297-.133-.664-.2-1.102-.2-.453 0-.847.09-1.183.27-.328.18-.602.43-.82.75a3.53 3.53 0 0 0-.481 1.101 5.418 5.418 0 0 0-.164 1.36Zm18.141 3.75V11.32h3.375V24h-3.176l-.199-3.035Zm.375-2.602.996-.023c0 .844-.098 1.629-.293 2.355-.196.72-.488 1.344-.879 1.875a4.109 4.109 0 0 1-1.477 1.23c-.593.29-1.293.434-2.097.434a5.453 5.453 0 0 1-1.711-.257 3.481 3.481 0 0 1-1.336-.832c-.367-.383-.656-.872-.867-1.465-.204-.602-.305-1.325-.305-2.168V11.32h3.375v8.215c0 .375.043.692.129.95.094.257.222.468.387.632.164.164.355.281.574.352.226.07.476.105.75.105.695 0 1.242-.14 1.64-.422.407-.28.692-.664.856-1.148.172-.492.258-1.04.258-1.64Zm11.414 5.871c-.985 0-1.867-.156-2.649-.468a5.818 5.818 0 0 1-1.992-1.325 5.884 5.884 0 0 1-1.242-1.957 6.591 6.591 0 0 1-.434-2.39v-.469c0-.96.137-1.84.41-2.637a6.224 6.224 0 0 1 1.172-2.074 5.153 5.153 0 0 1 1.875-1.348c.735-.32 1.563-.48 2.485-.48.898 0 1.695.148 2.39.445a4.673 4.673 0 0 1 1.746 1.266c.477.547.836 1.203 1.079 1.969.242.757.363 1.601.363 2.53v1.407h-10.078v-2.25h6.761v-.258c0-.468-.085-.886-.257-1.254a1.99 1.99 0 0 0-.75-.89c-.336-.219-.766-.328-1.289-.328-.446 0-.829.097-1.149.293-.32.195-.582.468-.785.82a4.457 4.457 0 0 0-.445 1.242 7.882 7.882 0 0 0-.141 1.547v.469c0 .508.07.976.211 1.406.148.43.355.8.621 1.113.274.313.602.555.984.727.391.172.832.258 1.325.258.609 0 1.175-.117 1.699-.352a3.682 3.682 0 0 0 1.371-1.09l1.641 1.782c-.266.382-.629.75-1.09 1.101-.453.352-1 .64-1.641.867-.64.219-1.371.328-2.191.328Z"/></svg>