<svg xmlns="http://www.w3.org/2000/svg" width="350" height="750" fill="none"><g clip-path="url(#a)"><path fill="#DBEAFE" d="M0 0h350v750H0V0Z"/><path fill="#fff" d="M256 533c0 26.51-21.49 48-48 48s-48-21.49-48-48 21.49-48 48-48 48 21.49 48 48Z"/><path fill="#BFDBFE" fill-rule="evenodd" d="M208 578c24.853 0 45-20.147 45-45s-20.147-45-45-45-45 20.147-45 45 20.147 45 45 45Zm0 3c26.51 0 48-21.49 48-48s-21.49-48-48-48-48 21.49-48 48 21.49 48 48 48Z" clip-rule="evenodd"/><path fill="#BFDBFE" d="M384 533c0 26.51-21.49 48-48 48s-48-21.49-48-48 21.49-48 48-48 48 21.49 48 48Z"/><path fill="#fff" fill-rule="evenodd" d="M336 578c24.853 0 45-20.147 45-45s-20.147-45-45-45-45 20.147-45 45 20.147 45 45 45Zm0 3c26.51 0 48-21.49 48-48s-21.49-48-48-48-48 21.49-48 48 21.49 48 48 48Z" clip-rule="evenodd"/><path fill="#FACC15" d="M128 533c0 26.51-21.49 48-48 48s-48-21.49-48-48 21.49-48 48-48 48 21.49 48 48Z"/><path fill="#fff" fill-rule="evenodd" d="M80 578c24.853 0 45-20.147 45-45s-20.147-45-45-45-45 20.147-45 45 20.147 45 45 45Zm0 3c26.51 0 48-21.49 48-48s-21.49-48-48-48-48 21.49-48 48 21.49 48 48 48Z" clip-rule="evenodd"/><path fill="#BFDBFE" d="M32 453a8 8 0 0 1 8-8h70a8 8 0 0 1 0 16H40a8 8 0 0 1-8-8ZM134 453a8 8 0 0 1 8-8h32a8 8 0 0 1 0 16h-32a8 8 0 0 1-8-8Z"/><path fill="#fff" fill-rule="evenodd" d="M274.5 287.561c.059-5.704 4.59-10.561 10.414-10.561 3.575 0 6.204 1.769 7.882 3.436.467.463.868.926 1.204 1.353.336-.427.737-.89 1.204-1.353 1.678-1.667 4.307-3.436 7.882-3.436 5.824 0 10.355 4.857 10.414 10.561.111 11.124-8.828 18.821-17.813 24.92a3 3 0 0 1-3.375 0c-8.985-6.099-17.924-13.796-17.812-24.92Zm20.84-2.386a1.5 1.5 0 0 1-2.68 0l-.002-.004a.071.071 0 0 0-.009-.017l-.007-.015a9.693 9.693 0 0 0-.453-.742 12.041 12.041 0 0 0-1.507-1.833c-1.343-1.333-3.257-2.564-5.768-2.564-4.069 0-7.371 3.419-7.414 7.591m17.84-2.416.002-.004.016-.032a9.693 9.693 0 0 1 .453-.742c.335-.501.838-1.169 1.507-1.833 1.343-1.333 3.257-2.564 5.768-2.564 4.069 0 7.371 3.419 7.414 7.591.094 9.374-7.435 16.256-16.499 22.408L294 310l-.001-.001c-9.065-6.152-16.593-13.034-16.499-22.408" clip-rule="evenodd"/><path fill="#BFDBFE" d="M32 295a8 8 0 0 1 8-8h54a8 8 0 0 1 0 16H40a8 8 0 0 1-8-8ZM118 295a8 8 0 0 1 8-8h90a8 8 0 0 1 0 16h-90a8 8 0 0 1-8-8Z"/><path fill="#fff" d="M32 333a6 6 0 0 1 6-6h84a6 6 0 1 1 0 12H38a6 6 0 0 1-6-6ZM32 361a6 6 0 0 1 6-6h129a6 6 0 1 1 0 12H38a6 6 0 0 1-6-6ZM144 333a6 6 0 0 1 6-6h100a6 6 0 1 1 0 12H150a6 6 0 0 1-6-6ZM32 63c0-11.046 8.954-20 20-20h246c11.046 0 20 8.954 20 20v156c0 11.046-8.954 20-20 20H52c-11.046 0-20-8.954-20-20V63Z"/><mask id="b" width="286" height="196" x="32" y="43" maskUnits="userSpaceOnUse" style="mask-type:alpha"><path fill="#fff" d="M32 63c0-11.046 8.954-20 20-20h246c11.046 0 20 8.954 20 20v156c0 11.046-8.954 20-20 20H52c-11.046 0-20-8.954-20-20V63Z"/></mask><g mask="url(#b)"><path fill="#BFDBFE" d="M32 43h176L32 211V43Z"/><path fill="#FACC15" d="M364 219c0 34.242-27.758 62-62 62-34.242 0-62-27.758-62-62 0-34.242 27.758-62 62-62 34.242 0 62 27.758 62 62Z"/><path fill="#fff" d="M302 166c0 34.794-28.206 63-63 63s-63-28.206-63-63 28.206-63 63-63 63 28.206 63 63Z"/><path fill="#DBEAFE" fill-rule="evenodd" d="M239 219c29.271 0 53-23.729 53-53s-23.729-53-53-53-53 23.729-53 53 23.729 53 53 53Zm0 10c34.794 0 63-28.206 63-63s-28.206-63-63-63-63 28.206-63 63 28.206 63 63 63Z" clip-rule="evenodd"/></g><mask id="c" fill="#fff"><path d="M0 654h350v96H0v-96Z"/></mask><path fill="#fff" d="M0 657h350v-6H0v6Z" mask="url(#c)"/><path fill="#fff" fill-rule="evenodd" d="M48.56 682.501a1.5 1.5 0 0 1 1.42 1.252l4.906 29.437 4.172-14.602a1.5 1.5 0 0 1 2.865-.062l2.658 7.974H69.5a1.5 1.5 0 0 1 0 3h-6a1.5 1.5 0 0 1-1.423-1.026l-1.467-4.4-4.668 16.338a1.502 1.502 0 0 1-2.922-.165l-4.814-28.887-4.25 17.004A1.5 1.5 0 0 1 42.5 709.5h-6a1.5 1.5 0 0 1 0-3h4.829l5.716-22.864a1.5 1.5 0 0 1 1.515-1.135Z" clip-rule="evenodd"/><path fill="#fff" fill-rule="evenodd" d="M72.5 706.5a1.5 1.5 0 1 0 0 3 1.5 1.5 0 0 0 0-3ZM68 708a4.5 4.5 0 1 1 9 0 4.5 4.5 0 0 1-9 0ZM162.712 685.235a16.227 16.227 0 0 1 9.015-2.735v1.5-1.5a16.226 16.226 0 0 1 16.227 16.227 16.229 16.229 0 0 1-10.017 14.992 16.231 16.231 0 0 1-17.684-3.517 16.224 16.224 0 0 1-3.518-17.685 16.223 16.223 0 0 1 5.977-7.282Zm9.015.265a13.23 13.23 0 0 1 13.227 13.227M171.727 685.5a13.228 13.228 0 1 0 13.227 13.227" clip-rule="evenodd"/><path fill="#fff" fill-rule="evenodd" d="M181.654 708.654a1.5 1.5 0 0 1 2.122 0l10.285 10.285a1.5 1.5 0 1 1-2.122 2.122l-10.285-10.285a1.5 1.5 0 0 1 0-2.122ZM276 693a1.5 1.5 0 0 1 1.5-1.5h33a1.5 1.5 0 0 1 0 3h-33a1.5 1.5 0 0 1-1.5-1.5ZM276 702a1.5 1.5 0 0 1 1.5-1.5h33a1.5 1.5 0 0 1 0 3h-33a1.5 1.5 0 0 1-1.5-1.5ZM276 711a1.5 1.5 0 0 1 1.5-1.5h33a1.5 1.5 0 0 1 0 3h-33a1.5 1.5 0 0 1-1.5-1.5Z" clip-rule="evenodd"/></g><defs><clipPath id="a"><rect width="350" height="750" fill="#fff" rx="50"/></clipPath></defs></svg>