<svg xmlns="http://www.w3.org/2000/svg" width="1100" height="702" fill="none"><g clip-path="url(#a)"><rect width="1100" height="702" fill="#fff" rx="20"/><path fill="#E11D48" d="M21 24.694a4.167 4.167 0 1 1 0-8.333 4.167 4.167 0 0 1 0 8.333Z"/><path fill="#FBBF24" d="M36 24.694a4.167 4.167 0 1 1 0-8.333 4.167 4.167 0 0 1 0 8.333Z"/><path fill="#22C55E" d="M51 24.694a4.167 4.167 0 1 1 0-8.333 4.167 4.167 0 0 1 0 8.333Z"/><path fill="#94A3B8" d="m1041.76 20.5 4.95 4.95a1.022 1.022 0 0 1 .23 1.098.996.996 0 0 1-.94.621.975.975 0 0 1-.38-.08 1.14 1.14 0 0 1-.33-.225l-5.65-5.657a.996.996 0 0 1-.3-.707c0-.265.11-.52.3-.707l5.65-5.657c.19-.182.44-.283.71-.28.26.002.51.107.69.292.19.186.3.436.3.699 0 .262-.1.514-.28.703l-4.95 4.95Z"/><path fill="#475569" d="m1073.31 20.571-4.95-4.95a1.019 1.019 0 0 1-.28-.703c.01-.263.11-.513.3-.699.18-.185.43-.29.69-.293.27-.002.52.099.71.281l5.66 5.657c.18.188.29.442.29.707 0 .265-.11.52-.29.707l-5.66 5.657c-.19.182-.44.283-.71.28a.975.975 0 0 1-.69-.292 1.02 1.02 0 0 1-.3-.699c0-.262.1-.514.28-.703l4.95-4.95Z"/><rect width="494.903" height="25" x="303.515" y="8" fill="#F1F5F9" rx="5"/><path fill="#94A3B8" d="M523.031 23.916v-3.264c0-.25-.051-.466-.152-.65a.999.999 0 0 0-.445-.434 1.619 1.619 0 0 0-.739-.152 1.73 1.73 0 0 0-.72.14 1.249 1.249 0 0 0-.481.37.81.81 0 0 0-.17.492h-1.084c0-.227.059-.451.176-.674.117-.223.285-.424.504-.603a2.52 2.52 0 0 1 .797-.434 3.14 3.14 0 0 1 1.043-.164c.461 0 .867.078 1.219.234.355.157.632.393.832.71.203.312.304.704.304 1.177v2.953c0 .211.018.436.053.674.039.238.096.443.17.615V25h-1.131a2 2 0 0 1-.129-.498 4.054 4.054 0 0 1-.047-.586Zm.188-2.76.011.762h-1.095c-.309 0-.584.025-.826.076-.243.047-.446.12-.61.217a.978.978 0 0 0-.504.879c0 .2.045.38.135.545.09.164.225.295.404.392.184.094.409.141.674.141.332 0 .625-.07.879-.211.254-.14.455-.313.604-.516.152-.203.234-.4.246-.591l.463.521a1.59 1.59 0 0 1-.223.545 2.605 2.605 0 0 1-1.201 1.025 2.33 2.33 0 0 1-.926.176c-.43 0-.807-.084-1.131-.252a1.937 1.937 0 0 1-.75-.674 1.782 1.782 0 0 1-.264-.955c0-.34.067-.638.2-.896.133-.262.324-.479.574-.65.25-.176.551-.31.902-.399.352-.09.744-.135 1.178-.135h1.26Zm3.685-1.277v7.558h-1.09V18.66h.997l.093 1.219Zm4.272 1.898v.123c0 .461-.055.89-.164 1.284-.11.39-.27.73-.481 1.02a2.19 2.19 0 0 1-.767.673c-.305.16-.655.24-1.049.24a2.68 2.68 0 0 1-1.067-.199 2.109 2.109 0 0 1-.785-.58 2.96 2.96 0 0 1-.515-.914 5.295 5.295 0 0 1-.258-1.201v-.657c.047-.468.135-.888.264-1.26.128-.37.298-.687.509-.949.215-.265.475-.466.78-.603.304-.14.656-.211 1.054-.211.399 0 .752.078 1.061.234.308.153.568.371.779.657.211.285.369.627.475 1.025.109.395.164.834.164 1.318Zm-1.09.123v-.123c0-.316-.033-.613-.1-.89a2.256 2.256 0 0 0-.31-.739 1.483 1.483 0 0 0-.528-.503 1.496 1.496 0 0 0-.767-.188 1.69 1.69 0 0 0-.715.14c-.199.094-.369.221-.51.381-.14.157-.256.336-.345.54-.086.199-.151.406-.194.62v1.518c.078.274.188.532.328.774a1.7 1.7 0 0 0 .563.58c.234.144.529.217.885.217.293 0 .545-.061.755-.182.215-.125.391-.295.528-.51a2.33 2.33 0 0 0 .31-.738c.067-.281.1-.58.1-.897Zm3.557-2.021v7.558h-1.09V18.66h.996l.094 1.219Zm4.271 1.898v.123c0 .461-.055.89-.164 1.284-.109.39-.27.73-.48 1.02-.208.288-.463.513-.768.673-.305.16-.654.24-1.049.24-.402 0-.758-.066-1.066-.199a2.093 2.093 0 0 1-.785-.58 2.962 2.962 0 0 1-.516-.914 5.295 5.295 0 0 1-.258-1.201v-.657c.047-.468.135-.888.264-1.26a3.14 3.14 0 0 1 .51-.949c.214-.265.474-.466.779-.603.305-.14.656-.211 1.055-.211.398 0 .752.078 1.06.234.309.153.568.371.779.657.211.285.37.627.475 1.025.109.395.164.834.164 1.318Zm-1.09.123v-.123a3.84 3.84 0 0 0-.099-.89 2.257 2.257 0 0 0-.311-.739 1.48 1.48 0 0 0-.527-.503 1.502 1.502 0 0 0-.768-.188c-.273 0-.512.047-.715.14-.199.094-.369.221-.509.381a2.018 2.018 0 0 0-.346.54c-.086.199-.151.406-.194.62v1.518c.079.274.188.532.329.774.14.238.328.431.562.58.234.144.529.217.885.217.293 0 .545-.061.756-.182a1.53 1.53 0 0 0 .527-.51 2.33 2.33 0 0 0 .311-.738c.066-.281.099-.58.099-.897Zm2.49 2.526c0-.184.057-.338.17-.463.118-.129.286-.194.504-.194.219 0 .385.065.498.194.118.125.176.28.176.463a.64.64 0 0 1-.176.457c-.113.125-.279.187-.498.187-.218 0-.386-.062-.504-.187a.657.657 0 0 1-.17-.457Zm4.752-.551 1.629-5.215h.715l-.14 1.037L544.611 25h-.697l.152-1.125Zm-1.095-5.215 1.388 5.274.1 1.066h-.732l-1.84-6.34h1.084Zm4.998 5.233 1.324-5.233h1.078l-1.84 6.34h-.726l.164-1.107Zm-1.401-5.233 1.594 5.127.182 1.213h-.692l-1.705-5.314-.14-1.026h.761Zm7.547 6.457c-.441 0-.842-.074-1.201-.223a2.73 2.73 0 0 1-.92-.638 2.845 2.845 0 0 1-.586-.973 3.56 3.56 0 0 1-.205-1.23v-.246c0-.516.076-.975.229-1.377a3.07 3.07 0 0 1 .621-1.032c.261-.28.558-.494.89-.638a2.559 2.559 0 0 1 1.032-.217c.453 0 .843.078 1.171.234.333.157.604.375.815.657.211.277.367.605.469.984.101.375.152.785.152 1.23v.487h-4.734v-.885h3.65v-.082a2.701 2.701 0 0 0-.176-.82 1.475 1.475 0 0 0-.468-.657c-.215-.171-.508-.257-.879-.257a1.477 1.477 0 0 0-1.213.615 2.29 2.29 0 0 0-.346.744c-.082.293-.123.63-.123 1.014v.246c0 .3.041.584.123.85.086.261.209.492.369.69.164.2.361.356.592.47.234.113.5.17.797.17.383 0 .707-.079.972-.235.266-.156.499-.365.698-.627l.656.522a3.072 3.072 0 0 1-.521.591c-.211.188-.471.34-.78.457-.304.118-.666.176-1.084.176Zm6.364 0c-.442 0-.842-.074-1.202-.223a2.73 2.73 0 0 1-.92-.638 2.86 2.86 0 0 1-.586-.973 3.585 3.585 0 0 1-.205-1.23v-.246c0-.516.077-.975.229-1.377a3.07 3.07 0 0 1 .621-1.032c.262-.28.559-.494.891-.638a2.554 2.554 0 0 1 1.031-.217c.453 0 .844.078 1.172.234.332.157.603.375.814.657.211.277.367.605.469.984.102.375.152.785.152 1.23v.487h-4.734v-.885h3.65v-.082a2.7 2.7 0 0 0-.175-.82 1.477 1.477 0 0 0-.469-.657c-.215-.171-.508-.257-.879-.257a1.477 1.477 0 0 0-1.213.615 2.31 2.31 0 0 0-.346.744c-.082.293-.123.63-.123 1.014v.246c0 .3.041.584.123.85.086.261.209.492.369.69.164.2.362.356.592.47.235.113.5.17.797.17.383 0 .707-.079.973-.235.265-.156.498-.365.697-.627l.656.522c-.136.207-.31.404-.521.591-.211.188-.471.34-.78.457-.304.118-.666.176-1.083.176ZM564.205 16h1.09v7.77l-.094 1.23h-.996v-9Zm5.373 5.777v.123c0 .461-.055.89-.164 1.284-.109.39-.269.73-.48 1.02-.211.288-.469.513-.774.673-.305.16-.654.24-1.049.24-.402 0-.756-.068-1.06-.205a2.083 2.083 0 0 1-.762-.603 3.12 3.12 0 0 1-.498-.95 5.996 5.996 0 0 1-.252-1.254v-.539c.047-.468.131-.888.252-1.26a3.12 3.12 0 0 1 .498-.949c.207-.265.461-.466.762-.603.301-.14.65-.211 1.049-.211.398 0 .752.078 1.06.234.309.153.567.371.774.657.211.285.371.627.48 1.025.109.395.164.834.164 1.318Zm-1.09.123v-.123c0-.316-.029-.613-.088-.89a2.292 2.292 0 0 0-.281-.739 1.402 1.402 0 0 0-.51-.503c-.211-.125-.47-.188-.779-.188-.273 0-.512.047-.715.14-.199.094-.369.221-.51.381a2.04 2.04 0 0 0-.345.54c-.086.199-.151.406-.194.62v1.413c.063.273.164.537.305.79.145.25.336.456.574.616.243.16.541.24.897.24a1.5 1.5 0 0 0 .75-.175c.211-.122.381-.288.51-.499.132-.21.23-.455.293-.732.062-.277.093-.574.093-.89Zm2.479 2.526a.66.66 0 0 1 .17-.463c.117-.129.285-.194.504-.194.218 0 .384.065.498.194.117.125.175.28.175.463 0 .18-.058.332-.175.457-.114.125-.28.187-.498.187-.219 0-.387-.062-.504-.187a.653.653 0 0 1-.17-.457Zm6.885-.51v-3.264c0-.25-.051-.466-.153-.65a.994.994 0 0 0-.445-.434c-.199-.101-.445-.152-.738-.152-.274 0-.514.047-.721.14a1.264 1.264 0 0 0-.481.37.81.81 0 0 0-.169.492h-1.084c0-.227.058-.451.175-.674a1.98 1.98 0 0 1 .504-.603 2.53 2.53 0 0 1 .797-.434c.313-.11.66-.164 1.043-.164.461 0 .867.078 1.219.234.355.157.633.393.832.71.203.312.305.704.305 1.177v2.953c0 .211.017.436.052.674.039.238.096.443.17.615V25h-1.131a2.091 2.091 0 0 1-.129-.498 4.045 4.045 0 0 1-.046-.586Zm.187-2.76.012.762h-1.096c-.309 0-.584.025-.826.076a1.89 1.89 0 0 0-.609.217.978.978 0 0 0-.504.879c0 .2.045.38.134.545.09.164.225.295.405.392.183.094.408.141.674.141.332 0 .625-.07.878-.211.254-.14.455-.313.604-.516.152-.203.234-.4.246-.591l.463.521a1.57 1.57 0 0 1-.223.545 2.605 2.605 0 0 1-1.201 1.025 2.327 2.327 0 0 1-.926.176 2.43 2.43 0 0 1-1.131-.252 1.937 1.937 0 0 1-.75-.674 1.79 1.79 0 0 1-.263-.955c0-.34.066-.638.199-.896.133-.262.324-.479.574-.65.25-.176.551-.31.903-.399.351-.09.744-.135 1.177-.135h1.26Zm3.779-2.496V25h-1.089v-6.34h1.089Zm-1.172-1.681c0-.176.053-.325.159-.446.109-.12.269-.181.48-.181.207 0 .365.06.475.181.113.121.17.27.17.445a.614.614 0 0 1-.17.434c-.11.117-.268.176-.475.176-.211 0-.371-.059-.48-.176a.636.636 0 0 1-.159-.433Z"/><path fill="#DBEAFE" d="M0 41h1100v661H0z"/><path fill="#BFDBFE" d="M0 41.881h184.255V702H0V41.881Z"/><path fill="#93C5FD" d="M22.11 104.456c0-5.841 4.95-10.576 11.056-10.576h117.923c6.105 0 11.055 4.735 11.055 10.576s-4.95 10.576-11.055 10.576H33.166c-6.106 0-11.056-4.735-11.056-10.576Z"/><path fill="#fff" d="M66.332 178.488c0-2.92 2.474-5.288 5.527-5.288h92.127c3.053 0 5.528 2.368 5.528 5.288 0 2.92-2.475 5.288-5.528 5.288H71.859c-3.053 0-5.527-2.368-5.527-5.288ZM66.332 234.893c0-2.92 2.474-5.288 5.527-5.288h63.568c3.053 0 5.528 2.368 5.528 5.288 0 2.921-2.475 5.288-5.528 5.288H71.859c-3.053 0-5.527-2.367-5.527-5.288ZM66.332 291.299c0-2.921 2.474-5.288 5.527-5.288h79.23c3.052 0 5.527 2.367 5.527 5.288 0 2.92-2.475 5.288-5.527 5.288h-79.23c-3.053 0-5.527-2.368-5.527-5.288Z"/><path fill="#93C5FD" fill-rule="evenodd" d="M36.85 189.945c6.615 0 11.977-5.129 11.977-11.457 0-6.328-5.362-11.457-11.976-11.457-6.615 0-11.977 5.129-11.977 11.457 0 6.328 5.362 11.457 11.977 11.457Zm0 2.644c8.142 0 14.741-6.313 14.741-14.101 0-7.788-6.6-14.101-14.74-14.101-8.141 0-14.74 6.313-14.74 14.101 0 7.788 6.599 14.101 14.74 14.101Z" clip-rule="evenodd"/><path fill="#BFDBFE" d="M243.216 104.456c0-3.894 3.3-7.05 7.37-7.05h106.868c4.071 0 7.37 3.156 7.37 7.05 0 3.894-3.299 7.051-7.37 7.051H250.586c-4.07 0-7.37-3.157-7.37-7.051Z"/><path fill="#fff" fill-rule="evenodd" d="M438.987 388.739c.054-5.027 4.229-9.307 9.594-9.307 3.293 0 5.716 1.559 7.262 3.028.43.409.8.816 1.109 1.193.309-.377.679-.784 1.109-1.193 1.546-1.469 3.969-3.028 7.262-3.028 5.365 0 9.54 4.28 9.594 9.307v.001c.102 9.804-8.133 16.587-16.41 21.962-.459.299-1 .458-1.555.458a2.851 2.851 0 0 1-1.555-.458c-8.278-5.375-16.513-12.158-16.41-21.962v-.001Zm19.199-2.103a1.39 1.39 0 0 1-1.234.728c-.522 0-1-.282-1.234-.728l-.002-.003-.008-.015-.007-.013a8.232 8.232 0 0 0-.417-.654 10.775 10.775 0 0 0-1.388-1.615c-1.238-1.176-3.001-2.26-5.315-2.26-3.748 0-6.79 3.014-6.83 6.69m16.435-2.13.002-.003.016-.028a8.232 8.232 0 0 1 .416-.654c.309-.441.773-1.03 1.388-1.615 1.238-1.176 3.001-2.26 5.315-2.26 3.748 0 6.791 3.013 6.83 6.69.086 8.262-6.85 14.327-15.2 19.749l-.001.001-.001-.001c-8.351-5.422-15.287-11.487-15.2-19.749" clip-rule="evenodd"/><path fill="#BFDBFE" d="M243.216 395.296c0-3.894 3.3-7.051 7.37-7.051h49.749c4.071 0 7.37 3.157 7.37 7.051s-3.299 7.051-7.37 7.051h-49.749c-4.07 0-7.37-3.157-7.37-7.051ZM322.446 395.296c0-3.894 3.3-7.051 7.37-7.051h82.915c4.07 0 7.37 3.157 7.37 7.051s-3.3 7.051-7.37 7.051h-82.915c-4.07 0-7.37-3.157-7.37-7.051Z"/><path fill="#fff" d="M243.216 464.04c0-2.92 2.475-5.288 5.528-5.288h77.387c3.053 0 5.528 2.368 5.528 5.288 0 2.92-2.475 5.288-5.528 5.288h-77.387c-3.053 0-5.528-2.368-5.528-5.288ZM243.216 488.717c0-2.92 2.475-5.288 5.528-5.288h118.844c3.053 0 5.528 2.368 5.528 5.288 0 2.921-2.475 5.288-5.528 5.288H248.744c-3.053 0-5.528-2.367-5.528-5.288ZM346.399 464.04c0-2.92 2.475-5.288 5.528-5.288h92.127c3.053 0 5.528 2.368 5.528 5.288 0 2.92-2.475 5.288-5.528 5.288h-92.127c-3.053 0-5.528-2.368-5.528-5.288ZM243.216 173.2c0-2.92 2.475-5.288 5.528-5.288h77.387c3.053 0 5.528 2.368 5.528 5.288 0 2.92-2.475 5.288-5.528 5.288h-77.387c-3.053 0-5.528-2.368-5.528-5.288ZM243.216 197.877c0-2.92 2.475-5.288 5.528-5.288h190.703c3.053 0 5.528 2.368 5.528 5.288 0 2.921-2.475 5.288-5.528 5.288H248.744c-3.053 0-5.528-2.367-5.528-5.288ZM346.399 173.2c0-2.92 2.475-5.288 5.528-5.288h210.05c3.053 0 5.527 2.368 5.527 5.288 0 2.92-2.474 5.288-5.527 5.288h-210.05c-3.053 0-5.528-2.368-5.528-5.288Z"/><path fill="#60A5FA" fill-rule="evenodd" d="M49.749 223.436H25.796v22.915h23.953v-22.915Zm-26.717-2.644v28.203h29.48v-28.203h-29.48Z" clip-rule="evenodd"/><g clip-path="url(#b)"><rect width="184.255" height="241.485" x="638.442" y="104.456" fill="#fff" rx="20"/><path fill="#FACC15" d="M761.18 346.15c0 61.107-51.354 110.644-114.701 110.644-63.348 0-114.701-49.537-114.701-110.644 0-61.107 51.353-110.644 114.701-110.644 63.347 0 114.701 49.537 114.701 110.644Z"/><path fill="#BFDBFE" fill-rule="evenodd" d="m848.276 198.504-59.933-57.334-59.932 57.334 59.932 57.334 59.933-57.334Zm-59.933-62.32-65.144 62.32 65.144 62.319 65.144-62.319-65.144-62.32Z" clip-rule="evenodd"/></g><path fill="#93C5FD" d="m37.772 278.96 14.74 24.424h-29.48l14.74-24.424Z"/><rect width="184.255" height="178.029" x="852.178" y="104.456" fill="#fff" rx="20"/><path fill="#BFDBFE" fill-rule="evenodd" d="M935.063 237.2c18.37 0 33.136-14.115 33.136-31.379 0-17.263-14.766-31.378-33.136-31.378-18.37 0-33.136 14.115-33.136 31.378 0 17.264 14.766 31.379 33.136 31.379Zm0 8.813c23.388 0 42.349-17.995 42.349-40.192s-18.961-40.191-42.349-40.191c-23.389 0-42.349 17.994-42.349 40.191 0 22.197 18.96 40.192 42.349 40.192Z" clip-rule="evenodd"/><path fill="#FACC15" d="m954.31 193.1 12.183-43.498 33.286 31.842L954.31 193.1Z"/><g clip-path="url(#c)"><rect width="184.255" height="269.688" x="638.442" y="374.144" fill="#fff" rx="20"/><path fill="#FACC15" fill-rule="evenodd" d="M811.181 678.204c51.644 0 93.509-40.051 93.509-89.455 0-49.405-41.865-89.456-93.509-89.456s-93.509 40.051-93.509 89.456c0 49.404 41.865 89.455 93.509 89.455Zm0 8.813c56.732 0 102.722-43.996 102.722-98.268 0-54.273-45.99-98.269-102.722-98.269-56.732 0-102.722 43.996-102.722 98.269 0 54.272 45.99 98.268 102.722 98.268Z" clip-rule="evenodd"/><path fill="#BFDBFE" d="M735.176 454.545c0 16.659-14.23 30.165-31.784 30.165-17.553 0-31.784-13.506-31.784-30.165 0-16.66 14.231-30.165 31.784-30.165 17.554 0 31.784 13.505 31.784 30.165Z"/><path fill="#BFDBFE" fill-rule="evenodd" d="M703.392 482.066c16.048 0 29.02-12.342 29.02-27.521 0-15.18-12.972-27.521-29.02-27.521-16.048 0-29.02 12.341-29.02 27.521 0 15.179 12.972 27.521 29.02 27.521Zm0 2.644c17.554 0 31.784-13.506 31.784-30.165 0-16.66-14.23-30.165-31.784-30.165-17.553 0-31.784 13.505-31.784 30.165 0 16.659 14.231 30.165 31.784 30.165Z" clip-rule="evenodd"/></g><g clip-path="url(#d)"><rect width="184.255" height="301.416" x="852.178" y="310.688" fill="#fff" rx="20"/><path fill="#fff" d="M1078.81 527.937c0 21.66-18.15 39.219-40.54 39.219-22.38 0-40.531-17.559-40.531-39.219 0-21.661 18.151-39.22 40.531-39.22 22.39 0 40.54 17.559 40.54 39.22Z"/><path fill="#BFDBFE" fill-rule="evenodd" d="M1038.27 564.512c20.84 0 37.78-16.347 37.78-36.575 0-20.229-16.94-36.576-37.78-36.576-20.83 0-37.77 16.347-37.77 36.576 0 20.228 16.94 36.575 37.77 36.575Zm0 2.644c22.39 0 40.54-17.559 40.54-39.219 0-21.661-18.15-39.22-40.54-39.22-22.38 0-40.531 17.559-40.531 39.22 0 21.66 18.151 39.219 40.531 39.219Z" clip-rule="evenodd"/><path fill="#BFDBFE" d="M1005.11 416.889c0 28.961-24.336 52.439-54.356 52.439-30.019 0-54.355-23.478-54.355-52.439 0-28.962 24.336-52.44 54.355-52.44 30.02 0 54.356 23.478 54.356 52.44Z"/><path fill="#FACC15" d="m886.265 517.801 2.599 7.154 7.915.154-6.309 4.576 2.293 7.248-6.498-4.325-6.498 4.325 2.292-7.248-6.309-4.576 7.915-.154 2.6-7.154ZM924.037 517.801l2.599 7.154 7.915.154-6.308 4.576 2.292 7.248-6.498-4.325-6.498 4.325 2.292-7.248-6.308-4.576 7.915-.154 2.599-7.154ZM961.809 517.801l2.599 7.154 7.915.154-6.308 4.576 2.292 7.248-6.498-4.325-6.498 4.325 2.292-7.248-6.308-4.576 7.915-.154 2.599-7.154ZM999.581 517.801l2.599 7.154 7.92.154-6.31 4.576 2.29 7.248-6.499-4.325-6.498 4.325 2.292-7.248-6.308-4.576 7.915-.154 2.599-7.154ZM1037.35 517.801l2.6 7.154 7.92.154-6.31 4.576 2.29 7.248-6.5-4.325-6.49 4.325 2.29-7.248-6.31-4.576 7.91-.154 2.6-7.154Z"/></g></g><defs><clipPath id="a"><rect width="1100" height="702" fill="#fff" rx="20"/></clipPath><clipPath id="b"><rect width="184.255" height="241.485" x="638.442" y="104.456" fill="#fff" rx="20"/></clipPath><clipPath id="c"><rect width="184.255" height="269.688" x="638.442" y="374.144" fill="#fff" rx="20"/></clipPath><clipPath id="d"><rect width="184.255" height="301.416" x="852.178" y="310.688" fill="#fff" rx="20"/></clipPath></defs></svg>