<svg xmlns="http://www.w3.org/2000/svg" width="750" height="480" fill="none"><g clip-path="url(#a)"><rect width="750" height="480" fill="#fff" rx="20"/><path fill="#E11D48" d="M21 24.694a4.167 4.167 0 1 1 0-8.333 4.167 4.167 0 0 1 0 8.333Z"/><path fill="#FBBF24" d="M36 24.694a4.167 4.167 0 1 1 0-8.333 4.167 4.167 0 0 1 0 8.333Z"/><path fill="#22C55E" d="M51 24.694a4.167 4.167 0 1 1 0-8.333 4.167 4.167 0 0 1 0 8.333Z"/><g filter="url(#b)"><path fill="#DBEAFE" d="M0 41h750v439H0z" shape-rendering="crispEdges"/><path fill="#BFDBFE" d="M0 41.585h125.628V480H0V41.585Z"/><path fill="#93C5FD" d="M15.075 83.144c0-3.88 3.375-7.024 7.538-7.024h80.402c4.163 0 7.538 3.145 7.538 7.024 0 3.88-3.375 7.024-7.538 7.024H22.613c-4.163 0-7.538-3.145-7.538-7.024Z"/><path fill="#fff" d="M45.226 132.312c0-1.94 1.687-3.512 3.769-3.512h62.814c2.081 0 3.769 1.572 3.769 3.512s-1.688 3.512-3.769 3.512H48.995c-2.082 0-3.769-1.572-3.769-3.512ZM45.226 169.773c0-1.939 1.687-3.512 3.769-3.512h43.342c2.081 0 3.769 1.573 3.769 3.512 0 1.94-1.688 3.512-3.77 3.512H48.996c-2.082 0-3.769-1.572-3.769-3.512ZM45.226 207.235c0-1.94 1.687-3.512 3.769-3.512h54.02c2.081 0 3.769 1.572 3.769 3.512 0 1.939-1.688 3.512-3.769 3.512h-54.02c-2.082 0-3.769-1.573-3.769-3.512Z"/><path fill="#93C5FD" fill-rule="evenodd" d="M25.125 139.921c4.51 0 8.166-3.406 8.166-7.609 0-4.202-3.656-7.609-8.166-7.609s-8.165 3.407-8.165 7.609c0 4.203 3.656 7.609 8.165 7.609Zm0 1.756c5.551 0 10.05-4.193 10.05-9.365 0-5.172-4.499-9.365-10.05-9.365-5.55 0-10.05 4.193-10.05 9.365 0 5.172 4.5 9.365 10.05 9.365Z" clip-rule="evenodd"/><path fill="#BFDBFE" d="M165.829 83.144c0-2.586 2.25-4.683 5.025-4.683h72.865c2.775 0 5.025 2.097 5.025 4.683s-2.25 4.683-5.025 4.683h-72.865c-2.775 0-5.025-2.097-5.025-4.683Z"/><path fill="#fff" fill-rule="evenodd" d="M299.309 271.95c.037-3.339 2.883-6.182 6.542-6.182 2.245 0 3.897 1.036 4.951 2.011.293.272.545.542.756.792.211-.25.463-.52.756-.792 1.054-.975 2.706-2.011 4.951-2.011 3.659 0 6.505 2.843 6.542 6.182.069 6.511-5.545 11.016-11.189 14.586a1.985 1.985 0 0 1-1.06.304c-.378 0-.747-.106-1.06-.304-5.644-3.57-11.259-8.075-11.189-14.586Zm13.091-1.397a.953.953 0 0 1-.842.483.953.953 0 0 1-.842-.483l-.001-.002-.005-.01-.005-.009-.053-.089a7.206 7.206 0 0 0-1.178-1.418c-.844-.781-2.046-1.501-3.623-1.501-2.556 0-4.63 2.002-4.657 4.443m11.206-1.414.001-.002.01-.019c.011-.018.028-.049.053-.089a7.206 7.206 0 0 1 1.178-1.418c.844-.781 2.046-1.501 3.623-1.501 2.556 0 4.63 2.001 4.657 4.443.059 5.487-4.67 9.515-10.363 13.117h-.002c-5.694-3.601-10.423-7.63-10.363-13.116" clip-rule="evenodd"/><path fill="#BFDBFE" d="M165.829 276.304c0-2.586 2.25-4.683 5.025-4.683h33.92c2.775 0 5.025 2.097 5.025 4.683s-2.25 4.683-5.025 4.683h-33.92c-2.775 0-5.025-2.097-5.025-4.683ZM219.849 276.304c0-2.586 2.25-4.683 5.025-4.683h56.533c2.775 0 5.025 2.097 5.025 4.683s-2.25 4.683-5.025 4.683h-56.533c-2.775 0-5.025-2.097-5.025-4.683Z"/><path fill="#fff" d="M165.829 321.96c0-1.94 1.687-3.512 3.769-3.512h52.764c2.081 0 3.769 1.572 3.769 3.512s-1.688 3.512-3.769 3.512h-52.764c-2.082 0-3.769-1.572-3.769-3.512ZM165.829 338.349c0-1.939 1.687-3.512 3.769-3.512h81.03c2.082 0 3.769 1.573 3.769 3.512 0 1.94-1.687 3.512-3.769 3.512h-81.03c-2.082 0-3.769-1.572-3.769-3.512ZM236.181 321.96c0-1.94 1.687-3.512 3.769-3.512h62.814c2.081 0 3.768 1.572 3.768 3.512s-1.687 3.512-3.768 3.512H239.95c-2.082 0-3.769-1.572-3.769-3.512ZM165.829 128.8c0-1.94 1.687-3.512 3.769-3.512h52.764c2.081 0 3.769 1.572 3.769 3.512s-1.688 3.512-3.769 3.512h-52.764c-2.082 0-3.769-1.572-3.769-3.512ZM165.829 145.189c0-1.939 1.687-3.512 3.769-3.512h130.025c2.082 0 3.769 1.573 3.769 3.512 0 1.94-1.687 3.512-3.769 3.512H169.598c-2.082 0-3.769-1.572-3.769-3.512ZM236.181 128.8c0-1.94 1.687-3.512 3.769-3.512h143.216c2.081 0 3.768 1.572 3.768 3.512s-1.687 3.512-3.768 3.512H239.95c-2.082 0-3.769-1.572-3.769-3.512Z"/><path fill="#60A5FA" fill-rule="evenodd" d="M33.92 162.164H17.588v15.219H33.92v-15.219Zm-18.216-1.756v18.731h20.1v-18.731h-20.1Z" clip-rule="evenodd"/><g clip-path="url(#c)"><rect width="125.628" height="160.381" x="435.302" y="83.144" fill="#fff" rx="20"/><path fill="#FACC15" d="M518.986 243.664c0 40.584-35.014 73.484-78.205 73.484-43.192 0-78.205-32.9-78.205-73.484 0-40.584 35.013-73.484 78.205-73.484 43.191 0 78.205 32.9 78.205 73.484Z"/><path fill="#BFDBFE" fill-rule="evenodd" d="m578.37 145.605-40.863-38.078-40.863 38.078 40.863 38.079 40.863-38.079Zm-40.863-41.389-44.416 41.389 44.416 41.39 44.416-41.39-44.416-41.389Z" clip-rule="evenodd"/></g><path fill="#93C5FD" d="m25.754 199.04 10.05 16.221h-20.1l10.05-16.221Z"/><rect width="125.628" height="118.237" x="581.03" y="83.144" fill="#fff" rx="20"/><path fill="#BFDBFE" fill-rule="evenodd" d="M637.543 171.305c12.525 0 22.592-9.374 22.592-20.84 0-11.465-10.067-20.839-22.592-20.839-12.525 0-22.593 9.374-22.593 20.839 0 11.466 10.068 20.84 22.593 20.84Zm0 5.853c15.946 0 28.874-11.951 28.874-26.693s-12.928-26.693-28.874-26.693c-15.947 0-28.875 11.951-28.875 26.693s12.928 26.693 28.875 26.693Z" clip-rule="evenodd"/><path fill="#FACC15" d="m650.666 142.016 8.307-28.889 22.694 21.149-31.001 7.74Z"/><g clip-path="url(#d)"><rect width="125.628" height="179.112" x="435.302" y="262.256" fill="#fff" rx="20"/><path fill="#FACC15" fill-rule="evenodd" d="M553.078 464.196c35.212 0 63.757-26.599 63.757-59.411s-28.545-59.412-63.757-59.412c-35.211 0-63.756 26.6-63.756 59.412s28.545 59.411 63.756 59.411Zm0 5.853c38.681 0 70.038-29.22 70.038-65.264 0-36.045-31.357-65.265-70.038-65.265s-70.037 29.22-70.037 65.265c0 36.044 31.356 65.264 70.037 65.264Z" clip-rule="evenodd"/><path fill="#BFDBFE" d="M501.257 315.654c0 11.064-9.703 20.034-21.671 20.034-11.969 0-21.671-8.97-21.671-20.034 0-11.064 9.702-20.034 21.671-20.034 11.968 0 21.671 8.97 21.671 20.034Z"/><path fill="#BFDBFE" fill-rule="evenodd" d="M479.586 333.932c10.942 0 19.786-8.197 19.786-18.278s-8.844-18.278-19.786-18.278c-10.942 0-19.787 8.197-19.787 18.278s8.845 18.278 19.787 18.278Zm0 1.756c11.968 0 21.671-8.97 21.671-20.034 0-11.064-9.703-20.034-21.671-20.034-11.969 0-21.671 8.97-21.671 20.034 0 11.064 9.702 20.034 21.671 20.034Z" clip-rule="evenodd"/></g><g clip-path="url(#e)"><rect width="125.628" height="200.184" x="581.03" y="220.112" fill="#fff" rx="20"/><path fill="#fff" d="M735.553 364.397c0 14.385-12.374 26.047-27.638 26.047-15.265 0-27.639-11.662-27.639-26.047 0-14.386 12.374-26.048 27.639-26.048 15.264 0 27.638 11.662 27.638 26.048Z"/><path fill="#BFDBFE" fill-rule="evenodd" d="M707.915 388.688c14.203 0 25.753-10.857 25.753-24.291 0-13.435-11.55-24.292-25.753-24.292-14.204 0-25.754 10.857-25.754 24.292 0 13.434 11.55 24.291 25.754 24.291Zm0 1.756c15.264 0 27.638-11.662 27.638-26.047 0-14.386-12.374-26.048-27.638-26.048-15.265 0-27.639 11.662-27.639 26.048 0 14.385 12.374 26.047 27.639 26.047Z" clip-rule="evenodd"/><path fill="#BFDBFE" d="M685.302 290.645c0 19.234-16.593 34.827-37.061 34.827-20.467 0-37.06-15.593-37.06-34.827 0-19.235 16.593-34.828 37.06-34.828 20.468 0 37.061 15.593 37.061 34.828Z"/><path fill="#FACC15" d="m604.272 357.665 1.772 4.751 5.397.103-4.302 3.038 1.563 4.815-4.43-2.873-4.431 2.873 1.563-4.815-4.301-3.038 5.397-.103 1.772-4.751ZM630.025 357.665l1.772 4.751 5.397.103-4.301 3.038 1.563 4.815-4.431-2.873-4.43 2.873 1.563-4.815-4.302-3.038 5.397-.103 1.772-4.751ZM655.779 357.665l1.772 4.751 5.397.103-4.301 3.038 1.563 4.815-4.431-2.873-4.43 2.873 1.563-4.815-4.302-3.038 5.397-.103 1.772-4.751ZM681.533 357.665l1.772 4.751 5.397.103-4.301 3.038 1.563 4.815-4.431-2.873-4.431 2.873 1.564-4.815-4.302-3.038 5.397-.103 1.772-4.751ZM707.286 357.665l1.773 4.751 5.396.103-4.301 3.038 1.563 4.815-4.431-2.873-4.43 2.873 1.563-4.815-4.301-3.038 5.396-.103 1.772-4.751Z"/></g></g></g><defs><clipPath id="a"><rect width="750" height="480" fill="#fff" rx="20"/></clipPath><clipPath id="c"><rect width="125.628" height="160.381" x="435.302" y="83.144" fill="#fff" rx="20"/></clipPath><clipPath id="d"><rect width="125.628" height="179.112" x="435.302" y="262.256" fill="#fff" rx="20"/></clipPath><clipPath id="e"><rect width="125.628" height="200.184" x="581.03" y="220.112" fill="#fff" rx="20"/></clipPath><filter id="b" width="826" height="517" x="-38" y="26" color-interpolation-filters="sRGB" filterUnits="userSpaceOnUse"><feFlood flood-opacity="0" result="BackgroundImageFix"/><feColorMatrix in="SourceAlpha" result="hardAlpha" values="0 0 0 0 0 0 0 0 0 0 0 0 0 0 0 0 0 0 127 0"/><feOffset/><feGaussianBlur stdDeviation="7.5"/><feComposite in2="hardAlpha" operator="out"/><feColorMatrix values="0 0 0 0 0 0 0 0 0 0 0 0 0 0 0 0 0 0 0.07 0"/><feBlend in2="BackgroundImageFix" result="effect1_dropShadow_64_9859"/><feColorMatrix in="SourceAlpha" result="hardAlpha" values="0 0 0 0 0 0 0 0 0 0 0 0 0 0 0 0 0 0 127 0"/><feMorphology in="SourceAlpha" radius="12" result="effect2_dropShadow_64_9859"/><feOffset dy="25"/><feGaussianBlur stdDeviation="25"/><feColorMatrix values="0 0 0 0 0 0 0 0 0 0 0 0 0 0 0 0 0 0 0.25 0"/><feBlend in2="effect1_dropShadow_64_9859" result="effect2_dropShadow_64_9859"/><feBlend in="SourceGraphic" in2="effect2_dropShadow_64_9859" result="shape"/></filter></defs></svg>